<mxfile host="Electron" agent="Mozilla/5.0 (X11; Linux x86_64) AppleWebKit/537.36 (KHTML, like Gecko) draw.io/24.7.8 Chrome/128.0.6613.36 Electron/32.0.1 Safari/537.36" version="24.7.8" pages="2">
  <diagram name="components" id="ouwenbafjY0MVjLhUz1u">
    <mxGraphModel dx="4037" dy="3053" grid="1" gridSize="10" guides="1" tooltips="1" connect="1" arrows="1" fold="1" page="1" pageScale="1" pageWidth="850" pageHeight="1100" math="0" shadow="0">
      <root>
        <mxCell id="0" />
        <mxCell id="1" parent="0" />
        <mxCell id="Bl8FZD0ZV-Bx4sgZ9ev_-28" value="" style="rounded=0;whiteSpace=wrap;html=1;" vertex="1" parent="1">
          <mxGeometry x="-130" y="1310" width="270" height="160" as="geometry" />
        </mxCell>
        <mxCell id="5mgy_sJOqEItBZ4C_Sm8-16" style="edgeStyle=orthogonalEdgeStyle;rounded=0;orthogonalLoop=1;jettySize=auto;html=1;exitX=0.75;exitY=1;exitDx=0;exitDy=0;entryX=0.5;entryY=0;entryDx=0;entryDy=0;" parent="1" source="5mgy_sJOqEItBZ4C_Sm8-1" target="5mgy_sJOqEItBZ4C_Sm8-12" edge="1">
          <mxGeometry relative="1" as="geometry" />
        </mxCell>
        <mxCell id="5mgy_sJOqEItBZ4C_Sm8-19" style="edgeStyle=orthogonalEdgeStyle;rounded=0;orthogonalLoop=1;jettySize=auto;html=1;exitX=0.5;exitY=1;exitDx=0;exitDy=0;entryX=0.5;entryY=0;entryDx=0;entryDy=0;" parent="1" source="5mgy_sJOqEItBZ4C_Sm8-1" target="vN7V1DJsPOjtUJlF1pLi-1" edge="1">
          <mxGeometry relative="1" as="geometry">
            <Array as="points">
              <mxPoint x="100" y="160" />
              <mxPoint x="200" y="160" />
            </Array>
          </mxGeometry>
        </mxCell>
        <mxCell id="jE1srkqSyDaYgemKKpCi-2" value="" style="edgeStyle=orthogonalEdgeStyle;rounded=0;orthogonalLoop=1;jettySize=auto;html=1;exitX=0;exitY=0.5;exitDx=0;exitDy=0;entryX=1;entryY=0.5;entryDx=0;entryDy=0;" parent="1" source="5mgy_sJOqEItBZ4C_Sm8-2" target="jE1srkqSyDaYgemKKpCi-1" edge="1">
          <mxGeometry relative="1" as="geometry" />
        </mxCell>
        <mxCell id="5mgy_sJOqEItBZ4C_Sm8-1" value="App" style="rounded=0;whiteSpace=wrap;html=1;fillColor=#d5e8d4;strokeColor=#82b366;gradientColor=#97d077;fontColor=#000000;" parent="1" vertex="1">
          <mxGeometry x="40" y="40" width="120" height="60" as="geometry" />
        </mxCell>
        <mxCell id="5mgy_sJOqEItBZ4C_Sm8-15" style="edgeStyle=orthogonalEdgeStyle;rounded=0;orthogonalLoop=1;jettySize=auto;html=1;exitX=0.25;exitY=1;exitDx=0;exitDy=0;" parent="1" source="5mgy_sJOqEItBZ4C_Sm8-1" target="5mgy_sJOqEItBZ4C_Sm8-2" edge="1">
          <mxGeometry relative="1" as="geometry" />
        </mxCell>
        <mxCell id="5mgy_sJOqEItBZ4C_Sm8-2" value="Navbar" style="rounded=0;whiteSpace=wrap;html=1;fillColor=#d5e8d4;strokeColor=#82b366;gradientColor=#97d077;fontColor=#000000;" parent="1" vertex="1">
          <mxGeometry x="10" y="180" width="120" height="60" as="geometry" />
        </mxCell>
        <mxCell id="5mgy_sJOqEItBZ4C_Sm8-3" value="Age" style="rounded=0;whiteSpace=wrap;html=1;fillColor=#d5e8d4;strokeColor=#82b366;gradientColor=#97d077;fontColor=#000000;" parent="1" vertex="1">
          <mxGeometry x="540" y="820" width="120" height="60" as="geometry" />
        </mxCell>
        <mxCell id="5mgy_sJOqEItBZ4C_Sm8-4" value="Dynalink&lt;br&gt;&amp;lt;a&amp;gt;" style="rounded=0;whiteSpace=wrap;html=1;fillColor=#d5e8d4;strokeColor=#82b366;gradientColor=#97d077;fontColor=#000000;" parent="1" vertex="1">
          <mxGeometry x="380" y="680" width="120" height="60" as="geometry" />
        </mxCell>
        <mxCell id="5mgy_sJOqEItBZ4C_Sm8-14" style="edgeStyle=orthogonalEdgeStyle;rounded=0;orthogonalLoop=1;jettySize=auto;html=1;entryX=0.5;entryY=0;entryDx=0;entryDy=0;" parent="1" source="5mgy_sJOqEItBZ4C_Sm8-7" target="5mgy_sJOqEItBZ4C_Sm8-9" edge="1">
          <mxGeometry relative="1" as="geometry" />
        </mxCell>
        <mxCell id="ksdL5RVhRU_loUHVLGZt-2" value="" style="edgeStyle=orthogonalEdgeStyle;rounded=0;orthogonalLoop=1;jettySize=auto;html=1;" parent="1" source="5mgy_sJOqEItBZ4C_Sm8-7" target="ksdL5RVhRU_loUHVLGZt-1" edge="1">
          <mxGeometry relative="1" as="geometry" />
        </mxCell>
        <mxCell id="5mgy_sJOqEItBZ4C_Sm8-7" value="Tile" style="rounded=0;whiteSpace=wrap;html=1;fillColor=#d5e8d4;strokeColor=#82b366;gradientColor=#97d077;fontColor=#000000;" parent="1" vertex="1">
          <mxGeometry x="140" y="280" width="120" height="60" as="geometry" />
        </mxCell>
        <mxCell id="5mgy_sJOqEItBZ4C_Sm8-9" value="Subtitle" style="rounded=0;whiteSpace=wrap;html=1;fillColor=#d5e8d4;strokeColor=#82b366;gradientColor=#97d077;fontColor=#000000;" parent="1" vertex="1">
          <mxGeometry x="220" y="380" width="120" height="60" as="geometry" />
        </mxCell>
        <mxCell id="5mgy_sJOqEItBZ4C_Sm8-11" value="Emblem" style="rounded=0;whiteSpace=wrap;html=1;fillColor=#d5e8d4;strokeColor=#82b366;gradientColor=#97d077;fontColor=#000000;" parent="1" vertex="1">
          <mxGeometry x="540" y="890" width="120" height="60" as="geometry" />
        </mxCell>
        <mxCell id="5mgy_sJOqEItBZ4C_Sm8-17" style="edgeStyle=orthogonalEdgeStyle;rounded=0;orthogonalLoop=1;jettySize=auto;html=1;entryX=1;entryY=0.5;entryDx=0;entryDy=0;exitX=0;exitY=0.5;exitDx=0;exitDy=0;" parent="1" source="5mgy_sJOqEItBZ4C_Sm8-31" target="5mgy_sJOqEItBZ4C_Sm8-3" edge="1">
          <mxGeometry relative="1" as="geometry" />
        </mxCell>
        <mxCell id="5mgy_sJOqEItBZ4C_Sm8-18" style="edgeStyle=orthogonalEdgeStyle;rounded=0;orthogonalLoop=1;jettySize=auto;html=1;exitX=0;exitY=0.5;exitDx=0;exitDy=0;entryX=1;entryY=0.5;entryDx=0;entryDy=0;" parent="1" source="5mgy_sJOqEItBZ4C_Sm8-31" target="5mgy_sJOqEItBZ4C_Sm8-11" edge="1">
          <mxGeometry relative="1" as="geometry" />
        </mxCell>
        <mxCell id="5mgy_sJOqEItBZ4C_Sm8-22" style="edgeStyle=orthogonalEdgeStyle;rounded=0;orthogonalLoop=1;jettySize=auto;html=1;exitX=0.5;exitY=1;exitDx=0;exitDy=0;entryX=1;entryY=0.5;entryDx=0;entryDy=0;" parent="1" source="5mgy_sJOqEItBZ4C_Sm8-34" target="5mgy_sJOqEItBZ4C_Sm8-31" edge="1">
          <mxGeometry relative="1" as="geometry" />
        </mxCell>
        <mxCell id="5mgy_sJOqEItBZ4C_Sm8-27" style="edgeStyle=orthogonalEdgeStyle;rounded=0;orthogonalLoop=1;jettySize=auto;html=1;exitX=0;exitY=0.5;exitDx=0;exitDy=0;entryX=1;entryY=0.5;entryDx=0;entryDy=0;" parent="1" source="5mgy_sJOqEItBZ4C_Sm8-31" target="5mgy_sJOqEItBZ4C_Sm8-23" edge="1">
          <mxGeometry relative="1" as="geometry" />
        </mxCell>
        <mxCell id="5mgy_sJOqEItBZ4C_Sm8-28" style="edgeStyle=orthogonalEdgeStyle;rounded=0;orthogonalLoop=1;jettySize=auto;html=1;exitX=0;exitY=0.5;exitDx=0;exitDy=0;entryX=1;entryY=0.5;entryDx=0;entryDy=0;" parent="1" source="5mgy_sJOqEItBZ4C_Sm8-31" target="5mgy_sJOqEItBZ4C_Sm8-24" edge="1">
          <mxGeometry relative="1" as="geometry" />
        </mxCell>
        <mxCell id="5mgy_sJOqEItBZ4C_Sm8-12" value="Bio&lt;br&gt;&amp;lt;div&amp;gt;&lt;br&gt;// basically" style="rounded=0;whiteSpace=wrap;html=1;fillColor=#d5e8d4;strokeColor=#82b366;gradientColor=#97d077;fontColor=#000000;" parent="1" vertex="1">
          <mxGeometry x="940" y="200" width="120" height="60" as="geometry" />
        </mxCell>
        <mxCell id="5mgy_sJOqEItBZ4C_Sm8-21" value="" style="edgeStyle=orthogonalEdgeStyle;rounded=0;orthogonalLoop=1;jettySize=auto;html=1;exitX=0;exitY=0.5;exitDx=0;exitDy=0;" parent="1" source="5mgy_sJOqEItBZ4C_Sm8-20" target="5mgy_sJOqEItBZ4C_Sm8-4" edge="1">
          <mxGeometry relative="1" as="geometry">
            <mxPoint x="359.9655172413793" y="529.9999999999998" as="targetPoint" />
          </mxGeometry>
        </mxCell>
        <mxCell id="5mgy_sJOqEItBZ4C_Sm8-20" value="Ancestry" style="rounded=0;whiteSpace=wrap;html=1;fillColor=#d5e8d4;strokeColor=#82b366;gradientColor=#97d077;fontColor=#000000;" parent="1" vertex="1">
          <mxGeometry x="540" y="610" width="120" height="60" as="geometry" />
        </mxCell>
        <mxCell id="5mgy_sJOqEItBZ4C_Sm8-25" style="edgeStyle=orthogonalEdgeStyle;rounded=0;orthogonalLoop=1;jettySize=auto;html=1;exitX=0;exitY=0.5;exitDx=0;exitDy=0;" parent="1" source="5mgy_sJOqEItBZ4C_Sm8-23" target="5mgy_sJOqEItBZ4C_Sm8-4" edge="1">
          <mxGeometry relative="1" as="geometry">
            <mxPoint x="419.9999999999998" y="559.9999999999998" as="targetPoint" />
          </mxGeometry>
        </mxCell>
        <mxCell id="5mgy_sJOqEItBZ4C_Sm8-23" value="Background" style="rounded=0;whiteSpace=wrap;html=1;fillColor=#d5e8d4;strokeColor=#82b366;gradientColor=#97d077;fontColor=#000000;" parent="1" vertex="1">
          <mxGeometry x="540" y="680" width="120" height="60" as="geometry" />
        </mxCell>
        <mxCell id="5mgy_sJOqEItBZ4C_Sm8-26" style="edgeStyle=orthogonalEdgeStyle;rounded=0;orthogonalLoop=1;jettySize=auto;html=1;exitX=0;exitY=0.5;exitDx=0;exitDy=0;" parent="1" source="5mgy_sJOqEItBZ4C_Sm8-24" target="5mgy_sJOqEItBZ4C_Sm8-4" edge="1">
          <mxGeometry relative="1" as="geometry">
            <mxPoint x="359.9655172413793" y="589.9999999999998" as="targetPoint" />
          </mxGeometry>
        </mxCell>
        <mxCell id="5mgy_sJOqEItBZ4C_Sm8-24" value="Class" style="rounded=0;whiteSpace=wrap;html=1;fillColor=#d5e8d4;strokeColor=#82b366;gradientColor=#97d077;fontColor=#000000;" parent="1" vertex="1">
          <mxGeometry x="540" y="750" width="120" height="60" as="geometry" />
        </mxCell>
        <mxCell id="5mgy_sJOqEItBZ4C_Sm8-32" style="edgeStyle=orthogonalEdgeStyle;rounded=0;orthogonalLoop=1;jettySize=auto;html=1;exitX=0;exitY=0.5;exitDx=0;exitDy=0;entryX=1;entryY=0.5;entryDx=0;entryDy=0;" parent="1" source="5mgy_sJOqEItBZ4C_Sm8-31" target="5mgy_sJOqEItBZ4C_Sm8-20" edge="1">
          <mxGeometry relative="1" as="geometry" />
        </mxCell>
        <mxCell id="9SMMazilZ09QwtvP4KYV-7" style="edgeStyle=orthogonalEdgeStyle;rounded=0;orthogonalLoop=1;jettySize=auto;html=1;exitX=0;exitY=0.5;exitDx=0;exitDy=0;entryX=1;entryY=0.5;entryDx=0;entryDy=0;" parent="1" source="5mgy_sJOqEItBZ4C_Sm8-31" target="9SMMazilZ09QwtvP4KYV-6" edge="1">
          <mxGeometry relative="1" as="geometry" />
        </mxCell>
        <mxCell id="5mgy_sJOqEItBZ4C_Sm8-31" value="&amp;lt;ul&amp;gt;" style="rounded=0;whiteSpace=wrap;html=1;" parent="1" vertex="1">
          <mxGeometry x="700" y="540" width="120" height="60" as="geometry" />
        </mxCell>
        <mxCell id="5mgy_sJOqEItBZ4C_Sm8-40" style="edgeStyle=orthogonalEdgeStyle;rounded=0;orthogonalLoop=1;jettySize=auto;html=1;entryX=0.5;entryY=0;entryDx=0;entryDy=0;exitX=0.5;exitY=1;exitDx=0;exitDy=0;" parent="1" source="5mgy_sJOqEItBZ4C_Sm8-12" target="5mgy_sJOqEItBZ4C_Sm8-33" edge="1">
          <mxGeometry relative="1" as="geometry">
            <mxPoint x="440" y="350" as="sourcePoint" />
          </mxGeometry>
        </mxCell>
        <mxCell id="5mgy_sJOqEItBZ4C_Sm8-42" style="edgeStyle=orthogonalEdgeStyle;rounded=0;orthogonalLoop=1;jettySize=auto;html=1;entryX=0;entryY=0.5;entryDx=0;entryDy=0;" parent="1" source="5mgy_sJOqEItBZ4C_Sm8-33" target="5mgy_sJOqEItBZ4C_Sm8-41" edge="1">
          <mxGeometry relative="1" as="geometry" />
        </mxCell>
        <mxCell id="5mgy_sJOqEItBZ4C_Sm8-33" value="rightColumn" style="rounded=0;whiteSpace=wrap;html=1;" parent="1" vertex="1">
          <mxGeometry x="1020" y="300" width="120" height="60" as="geometry" />
        </mxCell>
        <mxCell id="5mgy_sJOqEItBZ4C_Sm8-36" style="edgeStyle=orthogonalEdgeStyle;rounded=0;orthogonalLoop=1;jettySize=auto;html=1;exitX=0.5;exitY=1;exitDx=0;exitDy=0;entryX=1;entryY=0.5;entryDx=0;entryDy=0;" parent="1" source="5mgy_sJOqEItBZ4C_Sm8-34" target="5mgy_sJOqEItBZ4C_Sm8-51" edge="1">
          <mxGeometry relative="1" as="geometry">
            <mxPoint x="260" y="430" as="targetPoint" />
          </mxGeometry>
        </mxCell>
        <mxCell id="5mgy_sJOqEItBZ4C_Sm8-38" style="edgeStyle=orthogonalEdgeStyle;rounded=0;orthogonalLoop=1;jettySize=auto;html=1;exitX=0.5;exitY=1;exitDx=0;exitDy=0;entryX=1;entryY=0.5;entryDx=0;entryDy=0;" parent="1" source="5mgy_sJOqEItBZ4C_Sm8-34" target="5mgy_sJOqEItBZ4C_Sm8-37" edge="1">
          <mxGeometry relative="1" as="geometry" />
        </mxCell>
        <mxCell id="5mgy_sJOqEItBZ4C_Sm8-39" style="edgeStyle=orthogonalEdgeStyle;rounded=0;orthogonalLoop=1;jettySize=auto;html=1;exitX=0.5;exitY=1;exitDx=0;exitDy=0;entryX=0.5;entryY=0;entryDx=0;entryDy=0;" parent="1" source="5mgy_sJOqEItBZ4C_Sm8-12" target="5mgy_sJOqEItBZ4C_Sm8-34" edge="1">
          <mxGeometry relative="1" as="geometry" />
        </mxCell>
        <mxCell id="5mgy_sJOqEItBZ4C_Sm8-34" value="leftColumn" style="rounded=0;whiteSpace=wrap;html=1;" parent="1" vertex="1">
          <mxGeometry x="860" y="300" width="120" height="60" as="geometry" />
        </mxCell>
        <mxCell id="5mgy_sJOqEItBZ4C_Sm8-37" value="Portrait&lt;br&gt;&amp;lt;img&amp;gt;&lt;br&gt;// unimplemented" style="rounded=0;whiteSpace=wrap;html=1;" parent="1" vertex="1">
          <mxGeometry x="700" y="470" width="120" height="60" as="geometry" />
        </mxCell>
        <mxCell id="5mgy_sJOqEItBZ4C_Sm8-44" style="edgeStyle=orthogonalEdgeStyle;rounded=0;orthogonalLoop=1;jettySize=auto;html=1;entryX=0;entryY=0.5;entryDx=0;entryDy=0;" parent="1" source="5mgy_sJOqEItBZ4C_Sm8-41" target="5mgy_sJOqEItBZ4C_Sm8-43" edge="1">
          <mxGeometry relative="1" as="geometry" />
        </mxCell>
        <mxCell id="9SMMazilZ09QwtvP4KYV-4" style="edgeStyle=orthogonalEdgeStyle;rounded=0;orthogonalLoop=1;jettySize=auto;html=1;exitX=1;exitY=0.5;exitDx=0;exitDy=0;entryX=0;entryY=0.5;entryDx=0;entryDy=0;" parent="1" source="5mgy_sJOqEItBZ4C_Sm8-41" target="9SMMazilZ09QwtvP4KYV-1" edge="1">
          <mxGeometry relative="1" as="geometry" />
        </mxCell>
        <mxCell id="9SMMazilZ09QwtvP4KYV-5" style="edgeStyle=orthogonalEdgeStyle;rounded=0;orthogonalLoop=1;jettySize=auto;html=1;exitX=1;exitY=0.5;exitDx=0;exitDy=0;entryX=0;entryY=0.5;entryDx=0;entryDy=0;" parent="1" source="5mgy_sJOqEItBZ4C_Sm8-41" target="9SMMazilZ09QwtvP4KYV-2" edge="1">
          <mxGeometry relative="1" as="geometry" />
        </mxCell>
        <mxCell id="5mgy_sJOqEItBZ4C_Sm8-41" value="&amp;lt;ul&amp;gt;" style="rounded=0;whiteSpace=wrap;html=1;" parent="1" vertex="1">
          <mxGeometry x="1180" y="400" width="120" height="60" as="geometry" />
        </mxCell>
        <mxCell id="5mgy_sJOqEItBZ4C_Sm8-46" style="edgeStyle=orthogonalEdgeStyle;rounded=0;orthogonalLoop=1;jettySize=auto;html=1;entryX=0;entryY=0.5;entryDx=0;entryDy=0;" parent="1" source="5mgy_sJOqEItBZ4C_Sm8-43" target="5mgy_sJOqEItBZ4C_Sm8-45" edge="1">
          <mxGeometry relative="1" as="geometry" />
        </mxCell>
        <mxCell id="5mgy_sJOqEItBZ4C_Sm8-43" value="&amp;lt;li&amp;gt;&amp;lt;p id=&quot;{i}&quot;&amp;gt; for i in range(0, biography.length)" style="rounded=0;whiteSpace=wrap;html=1;" parent="1" vertex="1">
          <mxGeometry x="1340" y="400" width="120" height="60" as="geometry" />
        </mxCell>
        <mxCell id="5mgy_sJOqEItBZ4C_Sm8-48" value="" style="edgeStyle=orthogonalEdgeStyle;rounded=0;orthogonalLoop=1;jettySize=auto;html=1;" parent="1" source="5mgy_sJOqEItBZ4C_Sm8-45" target="5mgy_sJOqEItBZ4C_Sm8-47" edge="1">
          <mxGeometry relative="1" as="geometry" />
        </mxCell>
        <mxCell id="5mgy_sJOqEItBZ4C_Sm8-45" value="maybe" style="rounded=0;whiteSpace=wrap;html=1;" parent="1" vertex="1">
          <mxGeometry x="1500" y="420" width="40" height="20" as="geometry" />
        </mxCell>
        <mxCell id="5mgy_sJOqEItBZ4C_Sm8-47" value="Dynalink&lt;br&gt;&amp;lt;a&amp;gt;" style="rounded=0;whiteSpace=wrap;html=1;fillColor=#d5e8d4;strokeColor=#82b366;gradientColor=#97d077;fontColor=#000000;" parent="1" vertex="1">
          <mxGeometry x="1580" y="400" width="120" height="60" as="geometry" />
        </mxCell>
        <mxCell id="5mgy_sJOqEItBZ4C_Sm8-51" value="&lt;div&gt;Title&lt;/div&gt;&lt;div&gt;// their name&lt;/div&gt;" style="rounded=0;whiteSpace=wrap;html=1;fillColor=#d5e8d4;strokeColor=#82b366;gradientColor=#97d077;fontColor=#000000;" parent="1" vertex="1">
          <mxGeometry x="700" y="400" width="120" height="60" as="geometry" />
        </mxCell>
        <mxCell id="9SMMazilZ09QwtvP4KYV-1" value="Likes&lt;br&gt;&amp;lt;li&amp;gt;" style="rounded=0;whiteSpace=wrap;html=1;" parent="1" vertex="1">
          <mxGeometry x="1340" y="470" width="120" height="60" as="geometry" />
        </mxCell>
        <mxCell id="9SMMazilZ09QwtvP4KYV-2" value="Dislikes&lt;br&gt;&amp;lt;li&amp;gt;" style="rounded=0;whiteSpace=wrap;html=1;" parent="1" vertex="1">
          <mxGeometry x="1340" y="540" width="120" height="60" as="geometry" />
        </mxCell>
        <mxCell id="9SMMazilZ09QwtvP4KYV-6" value="Group&lt;br&gt;&amp;lt;div v-if&amp;gt;" style="rounded=0;whiteSpace=wrap;html=1;fillColor=#d5e8d4;strokeColor=#82b366;gradientColor=#97d077;fontColor=#000000;" parent="1" vertex="1">
          <mxGeometry x="540" y="540" width="120" height="60" as="geometry" />
        </mxCell>
        <mxCell id="vN7V1DJsPOjtUJlF1pLi-2" style="edgeStyle=orthogonalEdgeStyle;rounded=0;orthogonalLoop=1;jettySize=auto;html=1;exitX=0.5;exitY=1;exitDx=0;exitDy=0;entryX=0.5;entryY=0;entryDx=0;entryDy=0;" parent="1" source="vN7V1DJsPOjtUJlF1pLi-1" target="5mgy_sJOqEItBZ4C_Sm8-7" edge="1">
          <mxGeometry relative="1" as="geometry" />
        </mxCell>
        <mxCell id="vN7V1DJsPOjtUJlF1pLi-1" value="artContainer&lt;br&gt;&amp;lt;div&amp;gt;" style="rounded=0;whiteSpace=wrap;html=1;" parent="1" vertex="1">
          <mxGeometry x="140" y="180" width="120" height="60" as="geometry" />
        </mxCell>
        <mxCell id="ksdL5RVhRU_loUHVLGZt-1" value="SymbolOverlay" style="rounded=0;whiteSpace=wrap;html=1;fillColor=#d5e8d4;strokeColor=#82b366;gradientColor=#97d077;fontColor=#000000;" parent="1" vertex="1">
          <mxGeometry x="60" y="380" width="120" height="60" as="geometry" />
        </mxCell>
        <mxCell id="jE1srkqSyDaYgemKKpCi-1" value="Themer" style="rounded=0;whiteSpace=wrap;html=1;fillColor=#d5e8d4;strokeColor=#82b366;gradientColor=#97d077;fontColor=#000000;" parent="1" vertex="1">
          <mxGeometry x="-270" y="180" width="120" height="60" as="geometry" />
        </mxCell>
        <mxCell id="jE1srkqSyDaYgemKKpCi-3" value="" style="endArrow=classic;dashed=1;html=1;rounded=0;exitX=0.25;exitY=0;exitDx=0;exitDy=0;entryX=0.75;entryY=0;entryDx=0;entryDy=0;endFill=1;" parent="1" source="jE1srkqSyDaYgemKKpCi-1" target="jE1srkqSyDaYgemKKpCi-1" edge="1">
          <mxGeometry width="50" height="50" relative="1" as="geometry">
            <mxPoint x="-220.00000000000023" y="169.99999999999977" as="sourcePoint" />
            <mxPoint x="69.99999999999977" y="169.99999999999977" as="targetPoint" />
            <Array as="points">
              <mxPoint x="-240" y="160" />
              <mxPoint x="-180" y="160" />
            </Array>
          </mxGeometry>
        </mxCell>
        <mxCell id="jE1srkqSyDaYgemKKpCi-5" value="function updateTheme() { /* update body CSS */ }" style="edgeLabel;html=1;align=center;verticalAlign=middle;resizable=0;points=[];" parent="jE1srkqSyDaYgemKKpCi-3" vertex="1" connectable="0">
          <mxGeometry x="0.0969" relative="1" as="geometry">
            <mxPoint x="-5" y="-10" as="offset" />
          </mxGeometry>
        </mxCell>
        <mxCell id="jE1srkqSyDaYgemKKpCi-4" value="&lt;h1&gt;Custom Themes&lt;/h1&gt;&lt;p&gt;Themer is a hidden component that has functions for customizing the site. Additional themes can be passed into it as an array of functions, or loaded in with an array of file paths to scripts. Emits 1st-class functions to App, which executes them.&lt;/p&gt;" style="text;html=1;strokeColor=none;fillColor=none;spacing=5;spacingTop=-20;whiteSpace=wrap;overflow=hidden;rounded=0;" parent="1" vertex="1">
          <mxGeometry x="40" y="-120" width="360" height="120" as="geometry" />
        </mxCell>
        <mxCell id="zrPby0omhZ4IttEVEKyj-3" style="edgeStyle=orthogonalEdgeStyle;rounded=0;orthogonalLoop=1;jettySize=auto;html=1;exitX=0.75;exitY=1;exitDx=0;exitDy=0;entryX=0.5;entryY=0;entryDx=0;entryDy=0;" parent="1" source="Bl8FZD0ZV-Bx4sgZ9ev_-10" target="zrPby0omhZ4IttEVEKyj-2" edge="1">
          <mxGeometry relative="1" as="geometry" />
        </mxCell>
        <mxCell id="zrPby0omhZ4IttEVEKyj-6" style="edgeStyle=orthogonalEdgeStyle;rounded=0;orthogonalLoop=1;jettySize=auto;html=1;exitX=0.75;exitY=1;exitDx=0;exitDy=0;entryX=0.5;entryY=0;entryDx=0;entryDy=0;" parent="1" source="zrPby0omhZ4IttEVEKyj-1" target="Bl8FZD0ZV-Bx4sgZ9ev_-10" edge="1">
          <mxGeometry relative="1" as="geometry" />
        </mxCell>
        <mxCell id="zrPby0omhZ4IttEVEKyj-7" style="edgeStyle=orthogonalEdgeStyle;rounded=0;orthogonalLoop=1;jettySize=auto;html=1;exitX=0.25;exitY=1;exitDx=0;exitDy=0;entryX=0.5;entryY=0;entryDx=0;entryDy=0;" parent="1" source="zrPby0omhZ4IttEVEKyj-1" target="zrPby0omhZ4IttEVEKyj-5" edge="1">
          <mxGeometry relative="1" as="geometry" />
        </mxCell>
        <mxCell id="zrPby0omhZ4IttEVEKyj-1" value="App" style="rounded=0;whiteSpace=wrap;html=1;" parent="1" vertex="1">
          <mxGeometry x="-560" y="640" width="120" height="60" as="geometry" />
        </mxCell>
        <mxCell id="zrPby0omhZ4IttEVEKyj-23" style="edgeStyle=orthogonalEdgeStyle;rounded=0;orthogonalLoop=1;jettySize=auto;html=1;exitX=0.5;exitY=1;exitDx=0;exitDy=0;entryX=0;entryY=0.5;entryDx=0;entryDy=0;" parent="1" source="zrPby0omhZ4IttEVEKyj-2" target="zrPby0omhZ4IttEVEKyj-20" edge="1">
          <mxGeometry relative="1" as="geometry" />
        </mxCell>
        <mxCell id="zrPby0omhZ4IttEVEKyj-24" style="edgeStyle=orthogonalEdgeStyle;rounded=0;orthogonalLoop=1;jettySize=auto;html=1;exitX=0.5;exitY=1;exitDx=0;exitDy=0;entryX=0;entryY=0.5;entryDx=0;entryDy=0;" parent="1" source="zrPby0omhZ4IttEVEKyj-2" target="zrPby0omhZ4IttEVEKyj-21" edge="1">
          <mxGeometry relative="1" as="geometry" />
        </mxCell>
        <mxCell id="zrPby0omhZ4IttEVEKyj-25" style="edgeStyle=orthogonalEdgeStyle;rounded=0;orthogonalLoop=1;jettySize=auto;html=1;exitX=0.5;exitY=1;exitDx=0;exitDy=0;entryX=0;entryY=0.5;entryDx=0;entryDy=0;" parent="1" source="zrPby0omhZ4IttEVEKyj-2" target="zrPby0omhZ4IttEVEKyj-22" edge="1">
          <mxGeometry relative="1" as="geometry" />
        </mxCell>
        <mxCell id="zrPby0omhZ4IttEVEKyj-2" value="Container" style="rounded=0;whiteSpace=wrap;html=1;" parent="1" vertex="1">
          <mxGeometry x="-360" y="970" width="120" height="60" as="geometry" />
        </mxCell>
        <mxCell id="zrPby0omhZ4IttEVEKyj-15" style="edgeStyle=orthogonalEdgeStyle;rounded=0;orthogonalLoop=1;jettySize=auto;html=1;exitX=0.5;exitY=1;exitDx=0;exitDy=0;entryX=0;entryY=0.5;entryDx=0;entryDy=0;" parent="1" source="zrPby0omhZ4IttEVEKyj-4" target="zrPby0omhZ4IttEVEKyj-14" edge="1">
          <mxGeometry relative="1" as="geometry">
            <mxPoint x="-420" y="1120" as="targetPoint" />
          </mxGeometry>
        </mxCell>
        <mxCell id="zrPby0omhZ4IttEVEKyj-18" style="edgeStyle=orthogonalEdgeStyle;rounded=0;orthogonalLoop=1;jettySize=auto;html=1;exitX=0.5;exitY=1;exitDx=0;exitDy=0;entryX=0;entryY=0.5;entryDx=0;entryDy=0;" parent="1" source="zrPby0omhZ4IttEVEKyj-4" target="zrPby0omhZ4IttEVEKyj-16" edge="1">
          <mxGeometry relative="1" as="geometry" />
        </mxCell>
        <mxCell id="zrPby0omhZ4IttEVEKyj-19" style="edgeStyle=orthogonalEdgeStyle;rounded=0;orthogonalLoop=1;jettySize=auto;html=1;exitX=0.5;exitY=1;exitDx=0;exitDy=0;entryX=0;entryY=0.5;entryDx=0;entryDy=0;" parent="1" source="zrPby0omhZ4IttEVEKyj-4" target="zrPby0omhZ4IttEVEKyj-17" edge="1">
          <mxGeometry relative="1" as="geometry" />
        </mxCell>
        <mxCell id="zrPby0omhZ4IttEVEKyj-4" value="Data" style="rounded=0;whiteSpace=wrap;html=1;" parent="1" vertex="1">
          <mxGeometry x="-500" y="970" width="120" height="60" as="geometry" />
        </mxCell>
        <mxCell id="zrPby0omhZ4IttEVEKyj-9" style="edgeStyle=orthogonalEdgeStyle;rounded=0;orthogonalLoop=1;jettySize=auto;html=1;exitX=0.5;exitY=1;exitDx=0;exitDy=0;entryX=1;entryY=0.5;entryDx=0;entryDy=0;" parent="1" source="zrPby0omhZ4IttEVEKyj-5" target="zrPby0omhZ4IttEVEKyj-8" edge="1">
          <mxGeometry relative="1" as="geometry" />
        </mxCell>
        <mxCell id="zrPby0omhZ4IttEVEKyj-12" style="edgeStyle=orthogonalEdgeStyle;rounded=0;orthogonalLoop=1;jettySize=auto;html=1;exitX=0.5;exitY=1;exitDx=0;exitDy=0;entryX=1;entryY=0.5;entryDx=0;entryDy=0;" parent="1" source="zrPby0omhZ4IttEVEKyj-5" target="zrPby0omhZ4IttEVEKyj-10" edge="1">
          <mxGeometry relative="1" as="geometry" />
        </mxCell>
        <mxCell id="zrPby0omhZ4IttEVEKyj-13" style="edgeStyle=orthogonalEdgeStyle;rounded=0;orthogonalLoop=1;jettySize=auto;html=1;exitX=0.5;exitY=1;exitDx=0;exitDy=0;entryX=1;entryY=0.5;entryDx=0;entryDy=0;" parent="1" source="zrPby0omhZ4IttEVEKyj-5" target="zrPby0omhZ4IttEVEKyj-11" edge="1">
          <mxGeometry relative="1" as="geometry" />
        </mxCell>
        <mxCell id="zrPby0omhZ4IttEVEKyj-35" style="edgeStyle=orthogonalEdgeStyle;rounded=0;orthogonalLoop=1;jettySize=auto;html=1;exitX=0.5;exitY=1;exitDx=0;exitDy=0;entryX=1;entryY=0.5;entryDx=0;entryDy=0;" parent="1" source="zrPby0omhZ4IttEVEKyj-5" target="zrPby0omhZ4IttEVEKyj-34" edge="1">
          <mxGeometry relative="1" as="geometry" />
        </mxCell>
        <mxCell id="zrPby0omhZ4IttEVEKyj-5" value="Navigation/Menu" style="rounded=0;whiteSpace=wrap;html=1;" parent="1" vertex="1">
          <mxGeometry x="-690" y="800" width="120" height="60" as="geometry" />
        </mxCell>
        <mxCell id="zrPby0omhZ4IttEVEKyj-8" value="CharacterTree" style="rounded=0;whiteSpace=wrap;html=1;fillColor=#d5e8d4;strokeColor=#82b366;gradientColor=#97d077;fontColor=#000000;" parent="1" vertex="1">
          <mxGeometry x="-840" y="870" width="120" height="60" as="geometry" />
        </mxCell>
        <mxCell id="zrPby0omhZ4IttEVEKyj-10" value="JournalTree" style="rounded=0;whiteSpace=wrap;html=1;fillColor=#d5e8d4;strokeColor=#82b366;gradientColor=#97d077;fontColor=#000000;" parent="1" vertex="1">
          <mxGeometry x="-840" y="940" width="120" height="60" as="geometry" />
        </mxCell>
        <mxCell id="zrPby0omhZ4IttEVEKyj-11" value="SettingTree" style="rounded=0;whiteSpace=wrap;html=1;fillColor=#d5e8d4;strokeColor=#82b366;gradientColor=#97d077;fontColor=#000000;" parent="1" vertex="1">
          <mxGeometry x="-840" y="1010" width="120" height="60" as="geometry" />
        </mxCell>
        <mxCell id="Bl8FZD0ZV-Bx4sgZ9ev_-29" style="edgeStyle=orthogonalEdgeStyle;rounded=0;orthogonalLoop=1;jettySize=auto;html=1;exitX=1;exitY=0.5;exitDx=0;exitDy=0;entryX=0;entryY=0.5;entryDx=0;entryDy=0;" edge="1" parent="1" source="zrPby0omhZ4IttEVEKyj-14" target="Bl8FZD0ZV-Bx4sgZ9ev_-28">
          <mxGeometry relative="1" as="geometry" />
        </mxCell>
        <mxCell id="zrPby0omhZ4IttEVEKyj-14" value="CharacterEntry" style="rounded=0;whiteSpace=wrap;html=1;fillColor=#d5e8d4;strokeColor=#82b366;gradientColor=#97d077;fontColor=#000000;" parent="1" vertex="1">
          <mxGeometry x="-365" y="1250" width="120" height="60" as="geometry" />
        </mxCell>
        <mxCell id="Bl8FZD0ZV-Bx4sgZ9ev_-30" style="edgeStyle=orthogonalEdgeStyle;rounded=0;orthogonalLoop=1;jettySize=auto;html=1;exitX=1;exitY=0.5;exitDx=0;exitDy=0;entryX=0;entryY=0.5;entryDx=0;entryDy=0;" edge="1" parent="1" source="zrPby0omhZ4IttEVEKyj-16" target="Bl8FZD0ZV-Bx4sgZ9ev_-28">
          <mxGeometry relative="1" as="geometry" />
        </mxCell>
        <mxCell id="zrPby0omhZ4IttEVEKyj-16" value="JournalEntry" style="rounded=0;whiteSpace=wrap;html=1;fillColor=#d5e8d4;strokeColor=#82b366;gradientColor=#97d077;fontColor=#000000;" parent="1" vertex="1">
          <mxGeometry x="-380" y="1320" width="120" height="60" as="geometry" />
        </mxCell>
        <mxCell id="Bl8FZD0ZV-Bx4sgZ9ev_-31" style="edgeStyle=orthogonalEdgeStyle;rounded=0;orthogonalLoop=1;jettySize=auto;html=1;exitX=1;exitY=0.5;exitDx=0;exitDy=0;entryX=0;entryY=0.5;entryDx=0;entryDy=0;" edge="1" parent="1" source="zrPby0omhZ4IttEVEKyj-17" target="Bl8FZD0ZV-Bx4sgZ9ev_-28">
          <mxGeometry relative="1" as="geometry">
            <mxPoint x="-200" y="1450" as="targetPoint" />
          </mxGeometry>
        </mxCell>
        <mxCell id="zrPby0omhZ4IttEVEKyj-17" value="SettingEntry" style="rounded=0;whiteSpace=wrap;html=1;fillColor=#d5e8d4;strokeColor=#82b366;gradientColor=#97d077;fontColor=#000000;" parent="1" vertex="1">
          <mxGeometry x="-400" y="1390" width="120" height="60" as="geometry" />
        </mxCell>
        <mxCell id="zrPby0omhZ4IttEVEKyj-44" style="edgeStyle=orthogonalEdgeStyle;rounded=0;orthogonalLoop=1;jettySize=auto;html=1;exitX=0.5;exitY=0;exitDx=0;exitDy=0;entryX=0.5;entryY=1;entryDx=0;entryDy=0;" parent="1" source="zrPby0omhZ4IttEVEKyj-20" target="zrPby0omhZ4IttEVEKyj-43" edge="1">
          <mxGeometry relative="1" as="geometry" />
        </mxCell>
        <mxCell id="zrPby0omhZ4IttEVEKyj-20" value="ArtContainer" style="rounded=0;whiteSpace=wrap;html=1;fillColor=#d5e8d4;strokeColor=#82b366;gradientColor=#97d077;fontColor=#000000;" parent="1" vertex="1">
          <mxGeometry x="-230" y="1040" width="120" height="60" as="geometry" />
        </mxCell>
        <mxCell id="Bl8FZD0ZV-Bx4sgZ9ev_-33" style="edgeStyle=orthogonalEdgeStyle;rounded=0;orthogonalLoop=1;jettySize=auto;html=1;exitX=0.5;exitY=1;exitDx=0;exitDy=0;entryX=0.5;entryY=0;entryDx=0;entryDy=0;" edge="1" parent="1" source="zrPby0omhZ4IttEVEKyj-21" target="zrPby0omhZ4IttEVEKyj-37">
          <mxGeometry relative="1" as="geometry" />
        </mxCell>
        <mxCell id="zrPby0omhZ4IttEVEKyj-21" value="ListContainer" style="rounded=0;whiteSpace=wrap;html=1;fillColor=#d5e8d4;strokeColor=#82b366;gradientColor=#97d077;fontColor=#000000;" parent="1" vertex="1">
          <mxGeometry x="20" y="1110" width="120" height="60" as="geometry" />
        </mxCell>
        <mxCell id="Bl8FZD0ZV-Bx4sgZ9ev_-32" style="edgeStyle=orthogonalEdgeStyle;rounded=0;orthogonalLoop=1;jettySize=auto;html=1;exitX=0.5;exitY=1;exitDx=0;exitDy=0;entryX=0.5;entryY=0;entryDx=0;entryDy=0;" edge="1" parent="1" source="zrPby0omhZ4IttEVEKyj-22" target="zrPby0omhZ4IttEVEKyj-37">
          <mxGeometry relative="1" as="geometry" />
        </mxCell>
        <mxCell id="zrPby0omhZ4IttEVEKyj-22" value="IndexContainer" style="rounded=0;whiteSpace=wrap;html=1;fillColor=#d5e8d4;strokeColor=#82b366;gradientColor=#97d077;fontColor=#000000;" parent="1" vertex="1">
          <mxGeometry x="-230" y="1180" width="120" height="60" as="geometry" />
        </mxCell>
        <mxCell id="zrPby0omhZ4IttEVEKyj-27" value="Displays art for Characters, Items, whatever the GM wants" style="text;html=1;align=center;verticalAlign=middle;whiteSpace=wrap;rounded=0;" parent="1" vertex="1">
          <mxGeometry x="-110" y="1040" width="120" height="60" as="geometry" />
        </mxCell>
        <mxCell id="zrPby0omhZ4IttEVEKyj-28" value="Displays simple lists of Characters, Journal Entries, Settings" style="text;html=1;align=center;verticalAlign=middle;whiteSpace=wrap;rounded=0;" parent="1" vertex="1">
          <mxGeometry x="140" y="1110" width="120" height="60" as="geometry" />
        </mxCell>
        <mxCell id="zrPby0omhZ4IttEVEKyj-29" value="Displays indexed lists of Characters, Journal Entries, Settings" style="text;html=1;align=center;verticalAlign=middle;whiteSpace=wrap;rounded=0;" parent="1" vertex="1">
          <mxGeometry x="-110" y="1180" width="120" height="60" as="geometry" />
        </mxCell>
        <mxCell id="zrPby0omhZ4IttEVEKyj-32" value="&quot;Hidden&quot; component" style="rounded=0;whiteSpace=wrap;html=1;" parent="1" vertex="1">
          <mxGeometry x="-840" y="640" width="120" height="60" as="geometry" />
        </mxCell>
        <mxCell id="zrPby0omhZ4IttEVEKyj-33" value="&quot;Rendered&quot; component" style="rounded=0;whiteSpace=wrap;html=1;fillColor=#d5e8d4;strokeColor=#82b366;gradientColor=#97d077;fontColor=#000000;" parent="1" vertex="1">
          <mxGeometry x="-840" y="700" width="120" height="60" as="geometry" />
        </mxCell>
        <mxCell id="zrPby0omhZ4IttEVEKyj-34" value="Navbar" style="rounded=0;whiteSpace=wrap;html=1;fillColor=#d5e8d4;strokeColor=#82b366;gradientColor=#97d077;fontColor=#000000;" parent="1" vertex="1">
          <mxGeometry x="-840" y="1080" width="120" height="60" as="geometry" />
        </mxCell>
        <mxCell id="zrPby0omhZ4IttEVEKyj-36" value="Note this legend doesn&#39;t apply to my old diagram" style="text;html=1;align=center;verticalAlign=middle;whiteSpace=wrap;rounded=0;" parent="1" vertex="1">
          <mxGeometry x="-840" y="760" width="120" height="60" as="geometry" />
        </mxCell>
        <mxCell id="zrPby0omhZ4IttEVEKyj-37" value="Tag" style="rounded=0;whiteSpace=wrap;html=1;fillColor=#d5e8d4;strokeColor=#82b366;gradientColor=#97d077;fontColor=#000000;" parent="1" vertex="1">
          <mxGeometry x="-120" y="1330" width="120" height="60" as="geometry" />
        </mxCell>
        <mxCell id="zrPby0omhZ4IttEVEKyj-43" value="Tile" style="rounded=0;whiteSpace=wrap;html=1;fillColor=#d5e8d4;strokeColor=#82b366;gradientColor=#97d077;fontColor=#000000;" parent="1" vertex="1">
          <mxGeometry x="-90" y="890" width="120" height="60" as="geometry" />
        </mxCell>
        <mxCell id="Bl8FZD0ZV-Bx4sgZ9ev_-19" style="edgeStyle=orthogonalEdgeStyle;rounded=0;orthogonalLoop=1;jettySize=auto;html=1;exitX=0;exitY=0.25;exitDx=0;exitDy=0;entryX=0;entryY=0.75;entryDx=0;entryDy=0;" edge="1" parent="1" source="Bl8FZD0ZV-Bx4sgZ9ev_-4" target="Bl8FZD0ZV-Bx4sgZ9ev_-5">
          <mxGeometry relative="1" as="geometry" />
        </mxCell>
        <mxCell id="Bl8FZD0ZV-Bx4sgZ9ev_-20" value="closeEntry()" style="edgeLabel;html=1;align=center;verticalAlign=middle;resizable=0;points=[];textDirection=vertical-lr;" vertex="1" connectable="0" parent="Bl8FZD0ZV-Bx4sgZ9ev_-19">
          <mxGeometry x="0.0111" y="1" relative="1" as="geometry">
            <mxPoint x="1" as="offset" />
          </mxGeometry>
        </mxCell>
        <mxCell id="Bl8FZD0ZV-Bx4sgZ9ev_-4" value="DataView" style="rounded=0;whiteSpace=wrap;html=1;" vertex="1" parent="1">
          <mxGeometry x="-275.05999999999995" y="710" width="120" height="60" as="geometry" />
        </mxCell>
        <mxCell id="Bl8FZD0ZV-Bx4sgZ9ev_-18" value="setEntry(entry)" style="edgeStyle=orthogonalEdgeStyle;rounded=0;orthogonalLoop=1;jettySize=auto;html=1;exitX=0;exitY=0.25;exitDx=0;exitDy=0;entryX=0;entryY=0.75;entryDx=0;entryDy=0;textDirection=vertical-lr;" edge="1" parent="1" source="Bl8FZD0ZV-Bx4sgZ9ev_-5" target="Bl8FZD0ZV-Bx4sgZ9ev_-4">
          <mxGeometry relative="1" as="geometry" />
        </mxCell>
        <mxCell id="Bl8FZD0ZV-Bx4sgZ9ev_-22" value="setContainer(cont)" style="edgeStyle=orthogonalEdgeStyle;rounded=0;orthogonalLoop=1;jettySize=auto;html=1;exitX=1;exitY=0.25;exitDx=0;exitDy=0;entryX=1;entryY=0.75;entryDx=0;entryDy=0;textDirection=vertical-lr;" edge="1" parent="1" source="Bl8FZD0ZV-Bx4sgZ9ev_-5" target="Bl8FZD0ZV-Bx4sgZ9ev_-6">
          <mxGeometry relative="1" as="geometry" />
        </mxCell>
        <mxCell id="Bl8FZD0ZV-Bx4sgZ9ev_-5" value="MainView" style="rounded=0;whiteSpace=wrap;html=1;" vertex="1" parent="1">
          <mxGeometry x="-205.05999999999995" y="590" width="120" height="60" as="geometry" />
        </mxCell>
        <mxCell id="Bl8FZD0ZV-Bx4sgZ9ev_-21" value="closeContainer()" style="edgeStyle=orthogonalEdgeStyle;rounded=0;orthogonalLoop=1;jettySize=auto;html=1;exitX=1;exitY=0.25;exitDx=0;exitDy=0;entryX=1;entryY=0.75;entryDx=0;entryDy=0;textDirection=vertical-lr;" edge="1" parent="1" source="Bl8FZD0ZV-Bx4sgZ9ev_-6" target="Bl8FZD0ZV-Bx4sgZ9ev_-5">
          <mxGeometry relative="1" as="geometry" />
        </mxCell>
        <mxCell id="Bl8FZD0ZV-Bx4sgZ9ev_-6" value="ContainerView" style="rounded=0;whiteSpace=wrap;html=1;" vertex="1" parent="1">
          <mxGeometry x="-135.05999999999995" y="710" width="120" height="60" as="geometry" />
        </mxCell>
        <mxCell id="Bl8FZD0ZV-Bx4sgZ9ev_-11" style="edgeStyle=orthogonalEdgeStyle;rounded=0;orthogonalLoop=1;jettySize=auto;html=1;exitX=0.25;exitY=1;exitDx=0;exitDy=0;entryX=0.5;entryY=0;entryDx=0;entryDy=0;" edge="1" parent="1" source="Bl8FZD0ZV-Bx4sgZ9ev_-10" target="zrPby0omhZ4IttEVEKyj-4">
          <mxGeometry relative="1" as="geometry" />
        </mxCell>
        <mxCell id="Bl8FZD0ZV-Bx4sgZ9ev_-10" value="MainView" style="rounded=0;whiteSpace=wrap;html=1;" vertex="1" parent="1">
          <mxGeometry x="-430" y="800" width="120" height="60" as="geometry" />
        </mxCell>
        <mxCell id="Bl8FZD0ZV-Bx4sgZ9ev_-23" value="setContainerAndEntry(cont, entry)" style="edgeStyle=orthogonalEdgeStyle;rounded=0;orthogonalLoop=1;jettySize=auto;html=1;exitX=1;exitY=0.5;exitDx=0;exitDy=0;entryX=0.5;entryY=0;entryDx=0;entryDy=0;" edge="1" parent="1" source="Bl8FZD0ZV-Bx4sgZ9ev_-15" target="Bl8FZD0ZV-Bx4sgZ9ev_-5">
          <mxGeometry relative="1" as="geometry" />
        </mxCell>
        <mxCell id="Bl8FZD0ZV-Bx4sgZ9ev_-15" value="Navigation/Menu" style="rounded=0;whiteSpace=wrap;html=1;" vertex="1" parent="1">
          <mxGeometry x="-605.06" y="510" width="120" height="60" as="geometry" />
        </mxCell>
        <mxCell id="Bl8FZD0ZV-Bx4sgZ9ev_-24" value="setContainerAndEntry(cont, entry)" style="edgeStyle=orthogonalEdgeStyle;rounded=0;orthogonalLoop=1;jettySize=auto;html=1;exitX=0.5;exitY=1;exitDx=0;exitDy=0;entryX=0.5;entryY=0;entryDx=0;entryDy=0;" edge="1" parent="1" source="Bl8FZD0ZV-Bx4sgZ9ev_-16" target="Bl8FZD0ZV-Bx4sgZ9ev_-5">
          <mxGeometry relative="1" as="geometry" />
        </mxCell>
        <mxCell id="Bl8FZD0ZV-Bx4sgZ9ev_-16" value="App" style="rounded=0;whiteSpace=wrap;html=1;" vertex="1" parent="1">
          <mxGeometry x="-485.05999999999995" y="310" width="120" height="60" as="geometry" />
        </mxCell>
        <mxCell id="Bl8FZD0ZV-Bx4sgZ9ev_-25" value="Story" style="rounded=0;whiteSpace=wrap;html=1;fillColor=#d5e8d4;strokeColor=#82b366;gradientColor=#97d077;fontColor=#000000;" vertex="1" parent="1">
          <mxGeometry x="-120" y="1400" width="120" height="60" as="geometry" />
        </mxCell>
        <mxCell id="Bl8FZD0ZV-Bx4sgZ9ev_-26" value="Text" style="rounded=0;whiteSpace=wrap;html=1;fillColor=#d5e8d4;strokeColor=#82b366;gradientColor=#97d077;fontColor=#000000;" vertex="1" parent="1">
          <mxGeometry x="10" y="1330" width="120" height="60" as="geometry" />
        </mxCell>
        <mxCell id="Bl8FZD0ZV-Bx4sgZ9ev_-27" value="MarkdownRenderer" style="rounded=0;whiteSpace=wrap;html=1;fillColor=#d5e8d4;strokeColor=#82b366;gradientColor=#97d077;fontColor=#000000;" vertex="1" parent="1">
          <mxGeometry x="10" y="1400" width="120" height="60" as="geometry" />
        </mxCell>
      </root>
    </mxGraphModel>
  </diagram>
  <diagram id="ILkV25av0nuwjLCmw5Jg" name="data">
    <mxGraphModel dx="989" dy="589" grid="1" gridSize="10" guides="1" tooltips="1" connect="1" arrows="1" fold="1" page="1" pageScale="1" pageWidth="850" pageHeight="1100" math="0" shadow="0">
      <root>
        <mxCell id="0" />
        <mxCell id="1" parent="0" />
        <mxCell id="K8AkR5AmDuPDYLPK-pG4-74" style="edgeStyle=orthogonalEdgeStyle;rounded=0;orthogonalLoop=1;jettySize=auto;html=1;exitX=1;exitY=0.5;exitDx=0;exitDy=0;entryX=0.5;entryY=1;entryDx=0;entryDy=0;endArrow=none;endFill=0;dashed=1;dashPattern=1 1;" edge="1" parent="1" source="K8AkR5AmDuPDYLPK-pG4-45" target="K8AkR5AmDuPDYLPK-pG4-14">
          <mxGeometry relative="1" as="geometry">
            <mxPoint x="100" y="600" as="sourcePoint" />
            <mxPoint x="345" y="230" as="targetPoint" />
            <Array as="points">
              <mxPoint x="370" y="470" />
              <mxPoint x="370" y="240" />
              <mxPoint x="285" y="240" />
            </Array>
          </mxGeometry>
        </mxCell>
        <mxCell id="K8AkR5AmDuPDYLPK-pG4-75" style="edgeStyle=orthogonalEdgeStyle;rounded=0;orthogonalLoop=1;jettySize=auto;html=1;exitX=1;exitY=0.5;exitDx=0;exitDy=0;entryX=0.5;entryY=1;entryDx=0;entryDy=0;endArrow=none;endFill=0;dashed=1;dashPattern=1 1;" edge="1" parent="1" source="K8AkR5AmDuPDYLPK-pG4-22" target="K8AkR5AmDuPDYLPK-pG4-10">
          <mxGeometry relative="1" as="geometry">
            <mxPoint x="100" y="480" as="sourcePoint" />
            <mxPoint x="295" y="230" as="targetPoint" />
          </mxGeometry>
        </mxCell>
        <mxCell id="K8AkR5AmDuPDYLPK-pG4-72" style="edgeStyle=orthogonalEdgeStyle;rounded=0;orthogonalLoop=1;jettySize=auto;html=1;exitX=1;exitY=0.5;exitDx=0;exitDy=0;entryX=0.5;entryY=1;entryDx=0;entryDy=0;endArrow=none;endFill=0;dashed=1;dashPattern=1 1;" edge="1" parent="1" source="K8AkR5AmDuPDYLPK-pG4-59" target="K8AkR5AmDuPDYLPK-pG4-13">
          <mxGeometry relative="1" as="geometry">
            <Array as="points">
              <mxPoint x="380" y="590" />
              <mxPoint x="380" y="230" />
              <mxPoint x="335" y="230" />
            </Array>
          </mxGeometry>
        </mxCell>
        <mxCell id="K8AkR5AmDuPDYLPK-pG4-1" value="id" style="rounded=0;whiteSpace=wrap;html=1;" vertex="1" parent="1">
          <mxGeometry x="40" y="140" width="20" height="20" as="geometry" />
        </mxCell>
        <mxCell id="K8AkR5AmDuPDYLPK-pG4-7" style="edgeStyle=orthogonalEdgeStyle;rounded=0;orthogonalLoop=1;jettySize=auto;html=1;exitX=0.5;exitY=1;exitDx=0;exitDy=0;entryX=0.5;entryY=0;entryDx=0;entryDy=0;endArrow=none;endFill=0;" edge="1" parent="1" source="K8AkR5AmDuPDYLPK-pG4-2" target="K8AkR5AmDuPDYLPK-pG4-5">
          <mxGeometry relative="1" as="geometry" />
        </mxCell>
        <mxCell id="K8AkR5AmDuPDYLPK-pG4-2" value="info" style="rounded=0;whiteSpace=wrap;html=1;" vertex="1" parent="1">
          <mxGeometry x="60" y="140" width="30" height="20" as="geometry" />
        </mxCell>
        <mxCell id="K8AkR5AmDuPDYLPK-pG4-3" value="characters.json" style="text;html=1;strokeColor=none;fillColor=none;align=center;verticalAlign=middle;whiteSpace=wrap;rounded=0;" vertex="1" parent="1">
          <mxGeometry x="40" y="120" width="90" height="20" as="geometry" />
        </mxCell>
        <mxCell id="K8AkR5AmDuPDYLPK-pG4-4" value="name" style="rounded=0;whiteSpace=wrap;html=1;" vertex="1" parent="1">
          <mxGeometry x="80" y="200" width="40" height="20" as="geometry" />
        </mxCell>
        <mxCell id="K8AkR5AmDuPDYLPK-pG4-5" value="info" style="text;html=1;strokeColor=none;fillColor=none;align=center;verticalAlign=middle;whiteSpace=wrap;rounded=0;" vertex="1" parent="1">
          <mxGeometry x="60" y="180" width="30" height="20" as="geometry" />
        </mxCell>
        <mxCell id="K8AkR5AmDuPDYLPK-pG4-6" value="id" style="rounded=0;whiteSpace=wrap;html=1;" vertex="1" parent="1">
          <mxGeometry x="60" y="200" width="20" height="20" as="geometry" />
        </mxCell>
        <mxCell id="K8AkR5AmDuPDYLPK-pG4-8" value="type" style="rounded=0;whiteSpace=wrap;html=1;" vertex="1" parent="1">
          <mxGeometry x="120" y="200" width="30" height="20" as="geometry" />
        </mxCell>
        <mxCell id="K8AkR5AmDuPDYLPK-pG4-9" value="heritage" style="rounded=0;whiteSpace=wrap;html=1;" vertex="1" parent="1">
          <mxGeometry x="200" y="200" width="50" height="20" as="geometry" />
        </mxCell>
        <mxCell id="K8AkR5AmDuPDYLPK-pG4-10" value="ancestry" style="rounded=0;whiteSpace=wrap;html=1;" vertex="1" parent="1">
          <mxGeometry x="150" y="200" width="50" height="20" as="geometry" />
        </mxCell>
        <mxCell id="K8AkR5AmDuPDYLPK-pG4-11" value="nationality" style="rounded=0;whiteSpace=wrap;html=1;" vertex="1" parent="1">
          <mxGeometry x="380" y="200" width="60" height="20" as="geometry" />
        </mxCell>
        <mxCell id="K8AkR5AmDuPDYLPK-pG4-12" value="level" style="rounded=0;whiteSpace=wrap;html=1;" vertex="1" parent="1">
          <mxGeometry x="350" y="200" width="30" height="20" as="geometry" />
        </mxCell>
        <mxCell id="K8AkR5AmDuPDYLPK-pG4-13" value="class" style="rounded=0;whiteSpace=wrap;html=1;" vertex="1" parent="1">
          <mxGeometry x="320" y="200" width="30" height="20" as="geometry" />
        </mxCell>
        <mxCell id="K8AkR5AmDuPDYLPK-pG4-14" value="background" style="rounded=0;whiteSpace=wrap;html=1;" vertex="1" parent="1">
          <mxGeometry x="250" y="200" width="70" height="20" as="geometry" />
        </mxCell>
        <mxCell id="K8AkR5AmDuPDYLPK-pG4-19" style="edgeStyle=orthogonalEdgeStyle;rounded=0;orthogonalLoop=1;jettySize=auto;html=1;exitX=0.5;exitY=1;exitDx=0;exitDy=0;entryX=0.5;entryY=0;entryDx=0;entryDy=0;endArrow=none;endFill=0;" edge="1" parent="1" source="K8AkR5AmDuPDYLPK-pG4-15" target="K8AkR5AmDuPDYLPK-pG4-18">
          <mxGeometry relative="1" as="geometry" />
        </mxCell>
        <mxCell id="K8AkR5AmDuPDYLPK-pG4-15" value="age" style="rounded=0;whiteSpace=wrap;html=1;" vertex="1" parent="1">
          <mxGeometry x="440" y="200" width="30" height="20" as="geometry" />
        </mxCell>
        <mxCell id="K8AkR5AmDuPDYLPK-pG4-16" value="exact" style="rounded=0;whiteSpace=wrap;html=1;" vertex="1" parent="1">
          <mxGeometry x="470" y="260" width="35" height="20" as="geometry" />
        </mxCell>
        <mxCell id="K8AkR5AmDuPDYLPK-pG4-17" value="calculateHumanYears" style="rounded=0;whiteSpace=wrap;html=1;" vertex="1" parent="1">
          <mxGeometry x="505" y="260" width="120" height="20" as="geometry" />
        </mxCell>
        <mxCell id="K8AkR5AmDuPDYLPK-pG4-18" value="age" style="text;html=1;strokeColor=none;fillColor=none;align=center;verticalAlign=middle;whiteSpace=wrap;rounded=0;" vertex="1" parent="1">
          <mxGeometry x="440" y="240" width="30" height="20" as="geometry" />
        </mxCell>
        <mxCell id="K8AkR5AmDuPDYLPK-pG4-20" value="age" style="rounded=0;whiteSpace=wrap;html=1;" vertex="1" parent="1">
          <mxGeometry x="440" y="260" width="30" height="20" as="geometry" />
        </mxCell>
        <mxCell id="K8AkR5AmDuPDYLPK-pG4-21" value="biography" style="rounded=0;whiteSpace=wrap;html=1;" vertex="1" parent="1">
          <mxGeometry x="470" y="200" width="60" height="20" as="geometry" />
        </mxCell>
        <mxCell id="K8AkR5AmDuPDYLPK-pG4-22" value="&quot;name&quot;" style="rounded=0;whiteSpace=wrap;html=1;" vertex="1" parent="1">
          <mxGeometry x="40" y="340" width="50" height="20" as="geometry" />
        </mxCell>
        <mxCell id="K8AkR5AmDuPDYLPK-pG4-23" style="edgeStyle=orthogonalEdgeStyle;rounded=0;orthogonalLoop=1;jettySize=auto;html=1;exitX=0.5;exitY=1;exitDx=0;exitDy=0;entryX=0.5;entryY=0;entryDx=0;entryDy=0;endArrow=none;endFill=0;" edge="1" source="K8AkR5AmDuPDYLPK-pG4-22" target="K8AkR5AmDuPDYLPK-pG4-27" parent="1">
          <mxGeometry relative="1" as="geometry">
            <mxPoint x="60" y="360" as="sourcePoint" />
          </mxGeometry>
        </mxCell>
        <mxCell id="K8AkR5AmDuPDYLPK-pG4-25" value="ancestries.json" style="text;html=1;strokeColor=none;fillColor=none;align=center;verticalAlign=middle;whiteSpace=wrap;rounded=0;" vertex="1" parent="1">
          <mxGeometry x="40" y="320" width="90" height="20" as="geometry" />
        </mxCell>
        <mxCell id="K8AkR5AmDuPDYLPK-pG4-26" value="name" style="rounded=0;whiteSpace=wrap;html=1;" vertex="1" parent="1">
          <mxGeometry x="60" y="400" width="40" height="20" as="geometry" />
        </mxCell>
        <mxCell id="K8AkR5AmDuPDYLPK-pG4-27" value="&quot;Ancestry&quot;" style="text;html=1;strokeColor=none;fillColor=none;align=center;verticalAlign=middle;whiteSpace=wrap;rounded=0;" vertex="1" parent="1">
          <mxGeometry x="40" y="380" width="60" height="20" as="geometry" />
        </mxCell>
        <mxCell id="K8AkR5AmDuPDYLPK-pG4-28" value="id" style="rounded=0;whiteSpace=wrap;html=1;" vertex="1" parent="1">
          <mxGeometry x="40" y="400" width="20" height="20" as="geometry" />
        </mxCell>
        <mxCell id="K8AkR5AmDuPDYLPK-pG4-29" value="rarity" style="rounded=0;whiteSpace=wrap;html=1;" vertex="1" parent="1">
          <mxGeometry x="100" y="400" width="30" height="20" as="geometry" />
        </mxCell>
        <mxCell id="K8AkR5AmDuPDYLPK-pG4-30" value="adulthood" style="rounded=0;whiteSpace=wrap;html=1;" vertex="1" parent="1">
          <mxGeometry x="210" y="400" width="60" height="20" as="geometry" />
        </mxCell>
        <mxCell id="K8AkR5AmDuPDYLPK-pG4-31" value="biology" style="rounded=0;whiteSpace=wrap;html=1;" vertex="1" parent="1">
          <mxGeometry x="160" y="400" width="50" height="20" as="geometry" />
        </mxCell>
        <mxCell id="K8AkR5AmDuPDYLPK-pG4-34" value="AoNID" style="rounded=0;whiteSpace=wrap;html=1;" vertex="1" parent="1">
          <mxGeometry x="320" y="400" width="40" height="20" as="geometry" />
        </mxCell>
        <mxCell id="K8AkR5AmDuPDYLPK-pG4-35" value="lifespan" style="rounded=0;whiteSpace=wrap;html=1;" vertex="1" parent="1">
          <mxGeometry x="270" y="400" width="50" height="20" as="geometry" />
        </mxCell>
        <mxCell id="K8AkR5AmDuPDYLPK-pG4-43" value="type" style="rounded=0;whiteSpace=wrap;html=1;" vertex="1" parent="1">
          <mxGeometry x="130" y="400" width="30" height="20" as="geometry" />
        </mxCell>
        <mxCell id="K8AkR5AmDuPDYLPK-pG4-45" value="&quot;name&quot;" style="rounded=0;whiteSpace=wrap;html=1;" vertex="1" parent="1">
          <mxGeometry x="40" y="460" width="50" height="20" as="geometry" />
        </mxCell>
        <mxCell id="K8AkR5AmDuPDYLPK-pG4-46" style="edgeStyle=orthogonalEdgeStyle;rounded=0;orthogonalLoop=1;jettySize=auto;html=1;exitX=0.5;exitY=1;exitDx=0;exitDy=0;entryX=0.5;entryY=0;entryDx=0;entryDy=0;endArrow=none;endFill=0;" edge="1" source="K8AkR5AmDuPDYLPK-pG4-45" target="K8AkR5AmDuPDYLPK-pG4-49" parent="1">
          <mxGeometry relative="1" as="geometry">
            <mxPoint x="60" y="480" as="sourcePoint" />
          </mxGeometry>
        </mxCell>
        <mxCell id="K8AkR5AmDuPDYLPK-pG4-47" value="backgrounds.json" style="text;html=1;strokeColor=none;fillColor=none;align=center;verticalAlign=middle;whiteSpace=wrap;rounded=0;" vertex="1" parent="1">
          <mxGeometry x="40" y="440" width="100" height="20" as="geometry" />
        </mxCell>
        <mxCell id="K8AkR5AmDuPDYLPK-pG4-48" value="name" style="rounded=0;whiteSpace=wrap;html=1;" vertex="1" parent="1">
          <mxGeometry x="60" y="520" width="40" height="20" as="geometry" />
        </mxCell>
        <mxCell id="K8AkR5AmDuPDYLPK-pG4-49" value="&quot;Ancestry&quot;" style="text;html=1;strokeColor=none;fillColor=none;align=center;verticalAlign=middle;whiteSpace=wrap;rounded=0;" vertex="1" parent="1">
          <mxGeometry x="40" y="500" width="60" height="20" as="geometry" />
        </mxCell>
        <mxCell id="K8AkR5AmDuPDYLPK-pG4-50" value="id" style="rounded=0;whiteSpace=wrap;html=1;" vertex="1" parent="1">
          <mxGeometry x="40" y="520" width="20" height="20" as="geometry" />
        </mxCell>
        <mxCell id="K8AkR5AmDuPDYLPK-pG4-51" value="rarity" style="rounded=0;whiteSpace=wrap;html=1;" vertex="1" parent="1">
          <mxGeometry x="100" y="520" width="30" height="20" as="geometry" />
        </mxCell>
        <mxCell id="K8AkR5AmDuPDYLPK-pG4-54" value="AoNID" style="rounded=0;whiteSpace=wrap;html=1;" vertex="1" parent="1">
          <mxGeometry x="170" y="520" width="40" height="20" as="geometry" />
        </mxCell>
        <mxCell id="K8AkR5AmDuPDYLPK-pG4-56" value="boosts" style="rounded=0;whiteSpace=wrap;html=1;" vertex="1" parent="1">
          <mxGeometry x="130" y="520" width="40" height="20" as="geometry" />
        </mxCell>
        <mxCell id="K8AkR5AmDuPDYLPK-pG4-59" value="&quot;name&quot;" style="rounded=0;whiteSpace=wrap;html=1;" vertex="1" parent="1">
          <mxGeometry x="40" y="580" width="50" height="20" as="geometry" />
        </mxCell>
        <mxCell id="K8AkR5AmDuPDYLPK-pG4-60" style="edgeStyle=orthogonalEdgeStyle;rounded=0;orthogonalLoop=1;jettySize=auto;html=1;exitX=0.5;exitY=1;exitDx=0;exitDy=0;entryX=0.5;entryY=0;entryDx=0;entryDy=0;endArrow=none;endFill=0;" edge="1" source="K8AkR5AmDuPDYLPK-pG4-59" target="K8AkR5AmDuPDYLPK-pG4-63" parent="1">
          <mxGeometry relative="1" as="geometry">
            <mxPoint x="60" y="600" as="sourcePoint" />
          </mxGeometry>
        </mxCell>
        <mxCell id="K8AkR5AmDuPDYLPK-pG4-61" value="classes.json" style="text;html=1;strokeColor=none;fillColor=none;align=center;verticalAlign=middle;whiteSpace=wrap;rounded=0;" vertex="1" parent="1">
          <mxGeometry x="40" y="560" width="70" height="20" as="geometry" />
        </mxCell>
        <mxCell id="K8AkR5AmDuPDYLPK-pG4-62" value="name" style="rounded=0;whiteSpace=wrap;html=1;" vertex="1" parent="1">
          <mxGeometry x="60" y="640" width="40" height="20" as="geometry" />
        </mxCell>
        <mxCell id="K8AkR5AmDuPDYLPK-pG4-63" value="&quot;Ancestry&quot;" style="text;html=1;strokeColor=none;fillColor=none;align=center;verticalAlign=middle;whiteSpace=wrap;rounded=0;" vertex="1" parent="1">
          <mxGeometry x="40" y="620" width="60" height="20" as="geometry" />
        </mxCell>
        <mxCell id="K8AkR5AmDuPDYLPK-pG4-64" value="id" style="rounded=0;whiteSpace=wrap;html=1;" vertex="1" parent="1">
          <mxGeometry x="40" y="640" width="20" height="20" as="geometry" />
        </mxCell>
        <mxCell id="K8AkR5AmDuPDYLPK-pG4-65" value="category" style="rounded=0;whiteSpace=wrap;html=1;" vertex="1" parent="1">
          <mxGeometry x="100" y="640" width="50" height="20" as="geometry" />
        </mxCell>
        <mxCell id="K8AkR5AmDuPDYLPK-pG4-66" value="AoNID" style="rounded=0;whiteSpace=wrap;html=1;" vertex="1" parent="1">
          <mxGeometry x="150" y="640" width="40" height="20" as="geometry" />
        </mxCell>
        <mxCell id="K8AkR5AmDuPDYLPK-pG4-71" style="edgeStyle=orthogonalEdgeStyle;rounded=0;orthogonalLoop=1;jettySize=auto;html=1;exitX=0;exitY=0.5;exitDx=0;exitDy=0;entryX=0.5;entryY=0;entryDx=0;entryDy=0;startArrow=classic;startFill=1;" edge="1" parent="1" source="K8AkR5AmDuPDYLPK-pG4-70" target="K8AkR5AmDuPDYLPK-pG4-65">
          <mxGeometry relative="1" as="geometry" />
        </mxCell>
        <mxCell id="K8AkR5AmDuPDYLPK-pG4-70" value="&quot;Martial&quot;, &quot;Caster&quot;, &quot;Misc.&quot;" style="text;html=1;strokeColor=none;fillColor=none;align=center;verticalAlign=middle;whiteSpace=wrap;rounded=0;" vertex="1" parent="1">
          <mxGeometry x="150" y="610" width="150" height="20" as="geometry" />
        </mxCell>
      </root>
    </mxGraphModel>
  </diagram>
</mxfile>
